<?xml version="1.0" encoding="UTF-8"?>
<svg id="Camada_2" data-name="Camada 2" xmlns="http://www.w3.org/2000/svg" viewBox="0 0 40.03 46.06">
  <defs>
    <style>
      .cls-1 {
        opacity: .5;
      }

      .cls-2 {
        fill: #afafaf;
      }
    </style>
  </defs>
  <g id="Camada_1-2" data-name="Camada 1">
    <g class="cls-1">
      <path class="cls-2" d="M3.09,11.51h33.82c.5,0,.1,1.12.09,1.37-.31,9.92-1.27,19.86-1.88,29.75-.49,1.96-2.07,3.1-4.06,3.26-7.23.56-15.19-.44-22.5,0-1.63-.22-3.14-1.36-3.62-2.96-.71-9.97-1.64-20.02-1.95-30.04-.02-.48-.45-1.01.09-1.37Z"/>
      <path class="cls-2" d="M14.46.22c1.63-.3,9.19-.27,10.91-.03,1.92.27,1.93,2.65,2.61,2.88l11.23.11c1.01.28.89,4.01.68,4.73-.09.31-.48.55-.74.72l-38.03.1c-.44-.15-.95-.48-1.04-.97-.11-.58-.09-3.03,0-3.64.13-.84.61-.96,1.35-1.03,3.37-.31,7.17.27,10.58-.02.63-.22.74-2.54,2.45-2.85Z"/>
    </g>
  </g>
</svg>